<svg xmlns="http://www.w3.org/2000/svg" viewBox="0 0 400 220">
  <defs>
    <linearGradient id="emeraldBody" x1="0" y1="0" x2="0" y2="1">
      <stop offset="0" stop-color="#bbf7d0"/>
      <stop offset="0.45" stop-color="#22c55e"/>
      <stop offset="1" stop-color="#166534"/>
    </linearGradient>
    <radialGradient id="emeraldShine" cx="36%" cy="34%" r="42%">
      <stop offset="0" stop-color="#fff" stop-opacity="0.45"/>
      <stop offset="1" stop-color="#fff" stop-opacity="0"/>
    </radialGradient>
  </defs>
  <g stroke="#163040" stroke-width="3.6" stroke-linejoin="round" stroke-linecap="round">
    
    <path d="M150 150 L120 196 M190 160 L186 208 M230 156 L270 200 M250 130 L320 150 M120 120 L70 150" fill="none" stroke-width="5"/>
    <path d="M132 78 C70 28, 24 78, 78 112 C40 100, 48 140, 120 128 Z" fill="#4ade80"/>
    <path d="M140 128 C78 168, 28 150, 70 188 C46 176, 64 200, 130 168 Z" fill="#4ade80"/>
    
    <ellipse cx="200" cy="114" rx="82" ry="54" fill="url(#emeraldBody)"/>
    <ellipse cx="188" cy="100" rx="36" ry="16" fill="url(#emeraldShine)" stroke="none"/>
    
    <circle cx="156" cy="70" r="9" fill="#4ade80"/>
    <circle cx="214" cy="66" r="9" fill="#4ade80"/>
    <circle cx="156" cy="78" r="11" fill="#fff"/><circle cx="152.9" cy="78.7" r="5.3" fill="#102028" stroke="none"/><circle cx="150.9" cy="74.9" r="2.2" fill="#fff" stroke="none"/>
    <circle cx="214" cy="74" r="11" fill="#fff"/><circle cx="210.9" cy="74.7" r="5.3" fill="#102028" stroke="none"/><circle cx="208.9" cy="70.9" r="2.2" fill="#fff" stroke="none"/>
    
  </g>
</svg>
