<svg xmlns="http://www.w3.org/2000/svg" viewBox="0 0 400 220">
  <defs>
    <linearGradient id="frBody" x1="0" y1="0" x2="0" y2="1">
      <stop offset="0" stop-color="#fdba74"/>
      <stop offset="0.4" stop-color="#f97316"/>
      <stop offset="1" stop-color="#9a3412"/>
    </linearGradient>
    <radialGradient id="frShine" cx="40%" cy="40%" r="45%">
      <stop offset="0" stop-color="#fff" stop-opacity="0.4"/>
      <stop offset="1" stop-color="#fff" stop-opacity="0"/>
    </radialGradient>
  </defs>
  <g stroke="#163040" stroke-width="3.6" stroke-linejoin="round" stroke-linecap="round">
    <path d="M150 70 C146 28, 168 18, 176 46" fill="none" stroke="#fed7aa" stroke-width="4"/>
    <circle cx="178" cy="34" r="10" fill="#fde68a"/>
    <path d="M86 130 C70 70, 140 48, 230 70 C300 90, 320 150, 250 180 C180 206, 100 186, 86 130Z" fill="url(#frBody)"/>
    <path d="M120 150 C160 186, 230 176, 250 146 C200 170, 150 168, 120 150Z" fill="#ffedd5" stroke="none"/>
    <path d="M70 150 C40 140, 36 168, 78 166 C60 156, 64 148, 70 150Z" fill="#fb923c"/>
    <path d="M96 118 C70 124, 78 150, 110 140" fill="#fff7ed"/>
    <g fill="#fff" stroke="none">
      <circle cx="160" cy="100" r="8"/><circle cx="200" cy="118" r="10"/><circle cx="230" cy="96" r="7"/>
      <circle cx="180" cy="146" r="9"/><circle cx="140" cy="132" r="6"/>
    </g>
    <g fill="#9a3412" stroke="none">
      <circle cx="168" cy="108" r="4"/><circle cx="214" cy="128" r="5"/><circle cx="150" cy="124" r="3"/>
    </g>
    <ellipse cx="170" cy="100" rx="36" ry="20" fill="url(#frShine)" stroke="none"/>
    <circle cx="118" cy="108" r="14" fill="#fff"/>
    <circle cx="114.6" cy="108.7" r="7.0" fill="#102028" stroke="none"/>
    <circle cx="111.6" cy="104.1" r="2.5" fill="#fff" stroke="none"/>
    <path d="M78 132 Q110 156 146 128" fill="none" stroke-width="3"/>
  </g>
</svg>
