<svg xmlns="http://www.w3.org/2000/svg" viewBox="0 0 400 220">
  <defs>
    <linearGradient id="makoBody" x1="0" y1="0" x2="0" y2="1">
      <stop offset="0" stop-color="#93c5fd"/>
      <stop offset="0.45" stop-color="#1d4ed8"/>
      <stop offset="1" stop-color="#172554"/>
    </linearGradient>
    <radialGradient id="makoShine" cx="38%" cy="36%" r="42%">
      <stop offset="0" stop-color="#fff" stop-opacity="0.45"/>
      <stop offset="1" stop-color="#fff" stop-opacity="0"/>
    </radialGradient>
  </defs>
  <g stroke="#163040" stroke-width="3.6" stroke-linejoin="round" stroke-linecap="round">
    <path d="M246 106 L358 36 L304 110 L360 180 Z" fill="#172554"/>
    <path d="M246 92 L378 22 L330 108 L378 192 L248 124 Z" fill="#172554"/>
    <path d="M78 110 C96 52, 176 42, 274 86 C314 110, 270 174, 176 178 C112 178, 70 150, 78 110Z" fill="url(#makoBody)"/>
    <path d="M110 126 C160 162, 230 160, 260 130" fill="#e0f2fe" stroke="none"/>
    <path d="M176 72 L194 26 L224 78" fill="#172554"/>
    <path d="M150 130 C114 178, 174 180, 186 136" fill="#0ea5e9"/>
    <ellipse cx="160" cy="100" rx="32" ry="14" fill="url(#makoShine)" stroke="none"/>
    <circle cx="116" cy="100" r="12" fill="#fff"/><circle cx="113.1" cy="100.7" r="6.0" fill="#102028" stroke="none"/><circle cx="110.5" cy="96.4" r="2.2" fill="#fff" stroke="none"/>
    <path d="M88 118 Q98 128 110 118" fill="none" stroke-width="2.6"/>
    <path d="M100 118 L112 110 M108 126 L120 116 M116 132 L128 122" fill="none" stroke-width="2.2"/>
  </g>
</svg>
