<svg xmlns="http://www.w3.org/2000/svg" viewBox="0 0 400 220">
  <defs>
    <linearGradient id="stoneBody" x1="0" y1="0" x2="0" y2="1">
      <stop offset="0" stop-color="#d6d3d1"/>
      <stop offset="0.45" stop-color="#78716c"/>
      <stop offset="1" stop-color="#44403c"/>
    </linearGradient>
    <radialGradient id="stoneShine" cx="38%" cy="36%" r="42%">
      <stop offset="0" stop-color="#fff" stop-opacity="0.45"/>
      <stop offset="1" stop-color="#fff" stop-opacity="0"/>
    </radialGradient>
  </defs>
  <g stroke="#163040" stroke-width="3.6" stroke-linejoin="round" stroke-linecap="round">
    <path d="M250 108 L362 38 L308 112 L364 182 Z" fill="#44403c"/>
    <path d="M72 112 C84 58, 168 42, 272 86 C308 112, 268 176, 168 180 C108 180, 68 154, 72 112Z" fill="url(#stoneBody)"/>
    <path d="M100 128 C150 164, 220 162, 250 132" fill="#a8a29e" stroke="none"/>
    <path d="M176 78 L194 32 L224 84" fill="#57534e"/>
    <path d="M150 132 C114 180, 174 182, 186 138" fill="#57534e"/>
    <ellipse cx="160" cy="96" rx="22" ry="14" fill="#57534e"/>
    <ellipse cx="200" cy="120" rx="26" ry="16" fill="#44403c"/>
    <ellipse cx="150" cy="132" rx="18" ry="12" fill="#6b7280"/>
    <ellipse cx="168" cy="100" rx="32" ry="14" fill="url(#stoneShine)" stroke="none"/>
    <circle cx="112" cy="108" r="13" fill="#fff"/><circle cx="108.9" cy="108.8" r="6.5" fill="#102028" stroke="none"/><circle cx="106.0" cy="104.1" r="2.3" fill="#fff" stroke="none"/>
    <path d="M82 126 Q92 136 104 126" fill="none" stroke-width="2.6"/>
  </g>
</svg>
